<svg width="800" height="600" viewBox="0 0 800 600" fill="none" xmlns="http://www.w3.org/2000/svg">
<g clip-path="url(#clip0_230_3)">
<path fill-rule="evenodd" clip-rule="evenodd" d="M523.501 369.5C527.309 363.983 527.476 358.317 524.001 352.5C522.231 344.391 517.231 340.391 509.001 340.5C487.461 342.111 468.461 349.778 452.001 363.5C450.873 365.345 450.373 367.345 450.501 369.5C445.563 370.646 440.896 372.313 436.501 374.5C432.879 372.022 428.879 370.689 424.501 370.5C425.049 368.606 426.049 366.94 427.501 365.5C425.813 364.479 424.48 363.145 423.501 361.5C434.434 357.633 445.434 353.967 456.501 350.5C456.501 348.833 456.501 347.167 456.501 345.5C458.1 345.768 459.433 345.434 460.501 344.5C470.978 343.91 481.311 342.41 491.501 340C496.918 337.406 501.584 333.906 505.501 329.5C511.805 330.26 518.138 330.593 524.501 330.5C524.537 326.021 525.37 321.688 527.001 317.5C536.275 296.425 547.775 276.759 561.501 258.5C545.205 251.509 528.205 247.509 510.501 246.5C503.267 237.761 495.433 229.427 487.001 221.5C492.278 200.387 484.945 185.387 465.001 176.5C465.327 168.152 461.493 164.986 453.501 167C450.139 170.894 446.139 171.561 441.501 169C418.123 167.543 402.123 177.709 393.501 199.5C380.575 198.992 367.908 200.492 355.501 204C354.447 205.388 354.281 206.888 355.001 208.5C365.203 217.517 377.036 223.184 390.501 225.5C390.294 228.241 389.294 230.574 387.501 232.5C386.47 231.645 385.304 230.978 384.001 230.5C381.299 232.705 378.465 234.705 375.501 236.5C353.672 231.087 332.005 231.92 310.501 239C286.226 246.139 263.893 256.972 243.501 271.5C237.568 275.426 231.902 279.759 226.501 284.5C225.619 207.728 258.953 151.562 326.501 116C393.203 88.4823 454.87 96.8157 511.501 141C562.328 187.483 581.162 244.65 568.001 312.5C561.79 337.586 550.79 360.253 535.001 380.5C531.299 376.63 527.465 372.963 523.501 369.5Z" fill="#E8ECF7"/>
<path fill-rule="evenodd" clip-rule="evenodd" d="M510.501 246.5C511.644 249.502 511.644 252.502 510.501 255.5C508.592 256.348 506.592 256.682 504.501 256.5C493.18 257.329 482.18 255.996 471.501 252.5C458.827 245.831 445.827 239.665 432.501 234C427.379 218.008 419.712 216.508 409.501 229.5C403.003 228.906 396.67 227.572 390.501 225.5C377.036 223.184 365.203 217.517 355.001 208.5C354.281 206.888 354.447 205.388 355.501 204C367.908 200.492 380.575 198.992 393.501 199.5C402.123 177.709 418.123 167.543 441.501 169C446.139 171.561 450.139 170.894 453.501 167C461.493 164.986 465.327 168.152 465.001 176.5C484.945 185.387 492.278 200.387 487.001 221.5C495.433 229.427 503.267 237.761 510.501 246.5Z" fill="#667294"/>
<path fill-rule="evenodd" clip-rule="evenodd" d="M471.5 252.5C469.461 257.566 466.627 262.233 463 266.5C457.136 272.699 450.969 278.532 444.5 284C436.069 291.282 426.736 293.115 416.5 289.5C409.732 286.354 408.899 282.021 414 276.5C414.23 266.296 411.063 257.296 404.5 249.5C405.5 249.5 406.5 249.5 407.5 249.5C408.073 242.808 408.739 236.141 409.5 229.5C419.711 216.508 427.378 218.008 432.5 234C445.826 239.665 458.826 245.831 471.5 252.5Z" fill="#FEFEFE"/>
<path fill-rule="evenodd" clip-rule="evenodd" d="M390.5 225.5C396.669 227.572 403.002 228.906 409.5 229.5C408.739 236.141 408.073 242.808 407.5 249.5C406.5 249.5 405.5 249.5 404.5 249.5C399.167 243.5 393.5 237.833 387.5 232.5C389.293 230.574 390.293 228.241 390.5 225.5Z" fill="#9EA8BE"/>
<path fill-rule="evenodd" clip-rule="evenodd" d="M387.5 232.5C393.5 237.833 399.167 243.5 404.5 249.5C411.063 257.296 414.23 266.296 414 276.5C408.899 282.021 409.732 286.354 416.5 289.5C415.577 292.26 413.744 294.26 411 295.5C410.781 294.062 410.281 292.729 409.5 291.5C407.15 292.861 404.816 294.194 402.5 295.5C400.072 296.212 397.739 297.212 395.5 298.5C395.167 298.167 394.833 297.833 394.5 297.5C397.093 292.388 399.093 287.055 400.5 281.5C398.286 280.959 396.12 280.626 394 280.5C388.783 268.743 383.616 257.077 378.5 245.5C376.647 242.792 375.647 239.792 375.5 236.5C378.464 234.705 381.298 232.705 384 230.5C385.303 230.978 386.469 231.645 387.5 232.5Z" fill="#677395"/>
<path fill-rule="evenodd" clip-rule="evenodd" d="M375.5 236.5C375.647 239.792 376.647 242.792 378.5 245.5C382.264 257.379 385.764 269.379 389 281.5C388.611 299.839 388.778 318.173 389.5 336.5C400.537 345.34 411.87 353.673 423.5 361.5C424.479 363.145 425.812 364.479 427.5 365.5C426.048 366.94 425.048 368.606 424.5 370.5C423.448 370.351 422.448 370.517 421.5 371C418.631 374.038 415.631 376.871 412.5 379.5C394.851 371.348 378.518 361.181 363.5 349C350.392 338.451 344.392 324.784 345.5 308C345.702 301.477 346.202 294.977 347 288.5C348.81 281.102 350.477 273.769 352 266.5C347.632 270.533 343.632 274.866 340 279.5C339.907 275.159 339.907 270.826 340 266.5C333.517 272.799 330.35 280.466 330.5 289.5C316.534 292.358 303.368 290.358 291 283.5C290.333 284.167 290.333 284.833 291 285.5C298.269 292.104 306.102 297.937 314.5 303C305.069 302.812 296.069 300.645 287.5 296.5C286.199 298.444 285.199 300.444 284.5 302.5C270.526 292.52 256.859 282.186 243.5 271.5C263.892 256.972 286.225 246.139 310.5 239C332.004 231.92 353.671 231.087 375.5 236.5Z" fill="#CDD4E2"/>
<path fill-rule="evenodd" clip-rule="evenodd" d="M510.501 246.5C528.205 247.509 545.205 251.509 561.501 258.5C547.775 276.759 536.275 296.425 527.001 317.5C525.37 321.688 524.537 326.021 524.501 330.5C518.138 330.593 511.805 330.26 505.501 329.5C498.186 328.864 490.853 328.364 483.501 328C483.168 327.667 482.834 327.333 482.501 327C488.921 323.618 492.421 318.451 493.001 311.5C487.094 309.924 481.428 310.591 476.001 313.5C475.445 311.115 475.611 308.782 476.501 306.5C479.826 288.689 486.826 272.522 497.501 258C500.037 257.814 502.37 257.314 504.501 256.5C506.592 256.682 508.592 256.348 510.501 255.5C511.644 252.502 511.644 249.502 510.501 246.5Z" fill="#FEFEFE"/>
<path fill-rule="evenodd" clip-rule="evenodd" d="M471.5 252.5C482.179 255.996 493.179 257.329 504.5 256.5C502.369 257.314 500.036 257.814 497.5 258C486.825 272.522 479.825 288.689 476.5 306.5C472.333 307.778 468.333 309.444 464.5 311.5C449.918 314.416 435.585 318.25 421.5 323C418.15 323.93 415.317 323.097 413 320.5C409.59 312.097 406.09 303.764 402.5 295.5C404.816 294.194 407.15 292.861 409.5 291.5C410.281 292.729 410.781 294.062 411 295.5C413.744 294.26 415.577 292.26 416.5 289.5C426.736 293.115 436.069 291.282 444.5 284C450.969 278.532 457.136 272.699 463 266.5C466.627 262.233 469.461 257.566 471.5 252.5Z" fill="#E8ECF7"/>
<path fill-rule="evenodd" clip-rule="evenodd" d="M378.5 245.5C383.616 257.077 388.783 268.743 394 280.5C396.12 280.626 398.286 280.959 400.5 281.5C399.093 287.055 397.093 292.388 394.5 297.5C394.833 297.833 395.167 298.167 395.5 298.5C397.739 297.212 400.072 296.212 402.5 295.5C406.09 303.764 409.59 312.097 413 320.5C415.317 323.097 418.15 323.93 421.5 323C435.585 318.25 449.918 314.416 464.5 311.5C464.217 312.289 463.717 312.956 463 313.5C461.119 323.84 459.285 334.174 457.5 344.5C458.5 344.5 459.5 344.5 460.5 344.5C459.432 345.434 458.099 345.768 456.5 345.5C456.5 347.167 456.5 348.833 456.5 350.5C445.433 353.967 434.433 357.633 423.5 361.5C411.87 353.673 400.537 345.34 389.5 336.5C388.778 318.173 388.611 299.839 389 281.5C385.764 269.379 382.264 257.379 378.5 245.5Z" fill="#9FA9BF"/>
<path fill-rule="evenodd" clip-rule="evenodd" d="M412.5 379.5C410.167 382.167 407.833 384.833 405.5 387.5C403.5 388.5 401.5 389.5 399.5 390.5C380.563 379.36 361.563 368.193 342.5 357C336.334 351.502 332.668 344.668 331.5 336.5C328.911 336.461 326.911 337.461 325.5 339.5C324.457 336.944 322.79 334.777 320.5 333C308.309 322.969 296.309 312.802 284.5 302.5C285.199 300.444 286.199 298.444 287.5 296.5C296.069 300.645 305.069 302.812 314.5 303C306.102 297.937 298.269 292.104 291 285.5C290.333 284.833 290.333 284.167 291 283.5C303.368 290.358 316.534 292.358 330.5 289.5C330.35 280.466 333.517 272.799 340 266.5C339.907 270.826 339.907 275.159 340 279.5C343.632 274.866 347.632 270.533 352 266.5C350.477 273.769 348.81 281.102 347 288.5C346.202 294.977 345.702 301.477 345.5 308C344.392 324.784 350.392 338.451 363.5 349C378.518 361.181 394.851 371.348 412.5 379.5Z" fill="#9FA9BF"/>
<path fill-rule="evenodd" clip-rule="evenodd" d="M243.5 271.5C256.859 282.186 270.526 292.52 284.5 302.5C296.309 312.802 308.309 322.969 320.5 333C322.79 334.777 324.457 336.944 325.5 339.5C322.779 339.963 320.112 340.629 317.5 341.5C315.217 341.392 313.217 340.559 311.5 339C304.056 330.55 295.723 323.217 286.5 317C266.249 308.138 245.915 299.472 225.5 291C224.058 290.623 223.058 289.79 222.5 288.5C224.167 287.5 225.5 286.167 226.5 284.5C231.901 279.759 237.567 275.426 243.5 271.5Z" fill="#677394"/>
<path fill-rule="evenodd" clip-rule="evenodd" d="M222.5 288.5C223.058 289.79 224.058 290.623 225.5 291C245.915 299.472 266.249 308.138 286.5 317C295.723 323.217 304.056 330.55 311.5 339C313.217 340.559 315.217 341.392 317.5 341.5C317.5 342.167 317.167 342.5 316.5 342.5C312.007 340.428 307.34 338.594 302.5 337C290.808 336.257 280.141 339.257 270.5 346C263.807 350.348 257.474 355.182 251.5 360.5C255.462 346.343 264.462 336.177 278.5 330C274.789 329.561 271.122 329.894 267.5 331C257.216 333.431 247.216 336.431 237.5 340C250.817 329.51 265.817 322.51 282.5 319C261.725 309.915 241.058 300.748 220.5 291.5C220.932 290.29 221.599 289.29 222.5 288.5Z" fill="#9FA9BF"/>
<path fill-rule="evenodd" clip-rule="evenodd" d="M220.5 291.5C241.058 300.748 261.725 309.915 282.5 319C265.817 322.51 250.817 329.51 237.5 340C247.216 336.431 257.216 333.431 267.5 331C271.122 329.894 274.789 329.561 278.5 330C264.462 336.177 255.462 346.343 251.5 360.5C257.474 355.182 263.807 350.348 270.5 346C280.141 339.257 290.808 336.257 302.5 337C307.34 338.594 312.007 340.428 316.5 342.5C322.142 346.442 325.808 351.775 327.5 358.5C323.36 356.261 319.36 353.761 315.5 351C304.588 346.141 295.921 348.641 289.5 358.5C288.137 361.662 287.303 364.996 287 368.5C286.463 381.509 286.63 394.509 287.5 407.5C287.5 411.167 287.5 414.833 287.5 418.5C247.082 402.385 214.416 376.718 189.5 341.5C195.813 322.219 206.146 305.553 220.5 291.5Z" fill="#CDD4E2"/>
<path fill-rule="evenodd" clip-rule="evenodd" d="M476.5 306.5C475.61 308.782 475.444 311.115 476 313.5C481.427 310.591 487.093 309.924 493 311.5C492.42 318.451 488.92 323.618 482.5 327C482.833 327.333 483.167 327.667 483.5 328C490.852 328.364 498.185 328.864 505.5 329.5C501.583 333.906 496.917 337.406 491.5 340C481.31 342.41 470.977 343.91 460.5 344.5C459.5 344.5 458.5 344.5 457.5 344.5C459.285 334.174 461.119 323.84 463 313.5C463.717 312.956 464.217 312.289 464.5 311.5C468.333 309.444 472.333 307.778 476.5 306.5Z" fill="#687495"/>
<path fill-rule="evenodd" clip-rule="evenodd" d="M399.5 390.5C396.368 399.393 399.701 403.393 409.5 402.5C411.305 405.403 413.971 406.736 417.5 406.5C422.871 405.899 428.204 405.066 433.5 404C441.844 402.16 445.844 396.993 445.5 388.5C449.188 387.66 452.688 386.326 456 384.5C458.907 386.868 462.074 388.535 465.5 389.5C464.069 389.881 463.236 390.881 463 392.5C460.777 407.454 457.611 422.12 453.5 436.5C430.507 444.666 406.84 447.499 382.5 445C375.83 444.118 369.164 443.285 362.5 442.5C368.696 425.688 371.863 408.355 372 390.5C358.108 378.476 343.275 367.809 327.5 358.5C325.808 351.775 322.142 346.442 316.5 342.5C317.167 342.5 317.5 342.167 317.5 341.5C320.112 340.629 322.779 339.963 325.5 339.5C326.911 337.461 328.911 336.461 331.5 336.5C332.668 344.668 336.334 351.502 342.5 357C361.563 368.193 380.563 379.36 399.5 390.5Z" fill="#E8ECF7"/>
<path fill-rule="evenodd" clip-rule="evenodd" d="M523.5 369.5C506.856 383.494 487.523 390.161 465.5 389.5C462.074 388.535 458.907 386.868 456 384.5C452.688 386.326 449.188 387.66 445.5 388.5C443.288 383.296 440.288 378.629 436.5 374.5C440.895 372.313 445.562 370.646 450.5 369.5C450.372 367.345 450.872 365.345 452 363.5C468.46 349.778 487.46 342.111 509 340.5C517.23 340.391 522.23 344.391 524 352.5C527.475 358.317 527.308 363.983 523.5 369.5Z" fill="#46B6A9"/>
<path fill-rule="evenodd" clip-rule="evenodd" d="M189.5 341.5C214.416 376.718 247.082 402.385 287.5 418.5C287.5 414.833 287.5 411.167 287.5 407.5C296.54 409.734 305.207 412.734 313.5 416.5C313.5 418.833 313.5 421.167 313.5 423.5C312.002 431.634 311.002 439.968 310.5 448.5C298.324 448.007 286.324 448.007 274.5 448.5C273.133 445.732 272.133 442.732 271.5 439.5C251.495 438.786 231.495 438.119 211.5 437.5C209.667 437.585 208.334 438.252 207.5 439.5C199.189 438.119 191.189 435.619 183.5 432C182.333 430.833 181.167 429.667 180 428.5C178.77 398.968 181.937 369.968 189.5 341.5Z" fill="#9FA9BF"/>
<path fill-rule="evenodd" clip-rule="evenodd" d="M494.501 344.5C500.622 344.09 506.622 344.59 512.501 346C513.518 347.049 513.685 348.216 513.001 349.5C507.248 355.628 500.414 360.128 492.501 363C487.229 364.869 481.895 366.535 476.501 368C470.834 368.667 465.168 368.667 459.501 368C457.79 366.867 457.29 365.367 458.001 363.5C463.717 357.386 470.55 352.886 478.501 350C483.943 348.149 489.276 346.316 494.501 344.5Z" fill="#FBFDFD"/>
<path fill-rule="evenodd" clip-rule="evenodd" d="M327.5 358.5C343.275 367.809 358.108 378.476 372 390.5C371.863 408.355 368.696 425.688 362.5 442.5C358.949 455.723 354.949 468.723 350.5 481.5C351.45 457.105 353.116 432.772 355.5 408.5C342.147 403.966 330.147 397.133 319.5 388C308.968 378.634 298.968 368.801 289.5 358.5C295.921 348.641 304.588 346.141 315.5 351C319.36 353.761 323.36 356.261 327.5 358.5Z" fill="#667294"/>
<path fill-rule="evenodd" clip-rule="evenodd" d="M289.499 358.5C298.967 368.801 308.967 378.634 319.499 388C330.146 397.133 342.146 403.966 355.499 408.5C353.115 432.772 351.449 457.105 350.499 481.5C349.309 486.571 347.809 491.571 345.999 496.5C340.246 475.481 335.746 454.148 332.499 432.5C332.499 429.167 332.499 425.833 332.499 422.5C326.045 420.904 319.712 418.904 313.499 416.5C305.206 412.734 296.539 409.734 287.499 407.5C286.629 394.509 286.462 381.509 286.999 368.5C287.302 364.996 288.136 361.662 289.499 358.5Z" fill="#586280"/>
<path fill-rule="evenodd" clip-rule="evenodd" d="M424.5 370.5C428.878 370.689 432.878 372.022 436.5 374.5C440.288 378.629 443.288 383.296 445.5 388.5C445.844 396.993 441.844 402.16 433.5 404C428.204 405.066 422.871 405.899 417.5 406.5C413.971 406.736 411.305 405.403 409.5 402.5C412.22 399.322 413.054 395.655 412 391.5C410.362 389.266 408.195 387.933 405.5 387.5C407.833 384.833 410.167 382.167 412.5 379.5C415.631 376.871 418.631 374.038 421.5 371C422.448 370.517 423.448 370.351 424.5 370.5Z" fill="#667394"/>
<path fill-rule="evenodd" clip-rule="evenodd" d="M405.501 387.5C408.196 387.933 410.363 389.266 412.001 391.5C413.055 395.655 412.221 399.322 409.501 402.5C399.702 403.393 396.369 399.393 399.501 390.5C401.501 389.5 403.501 388.5 405.501 387.5Z" fill="#45B4A8"/>
<path fill-rule="evenodd" clip-rule="evenodd" d="M313.5 416.5C319.713 418.904 326.046 420.904 332.5 422.5C332.5 425.833 332.5 429.167 332.5 432.5C326.323 429.246 319.99 426.246 313.5 423.5C313.5 421.167 313.5 418.833 313.5 416.5Z" fill="#E3E7F3"/>
<path fill-rule="evenodd" clip-rule="evenodd" d="M274.5 448.5C274.64 450.124 273.973 451.29 272.5 452C233.121 466.567 193.787 480.901 154.5 495C172.371 476.631 190.037 458.131 207.5 439.5C208.334 438.252 209.667 437.585 211.5 437.5C231.495 438.119 251.495 438.786 271.5 439.5C272.133 442.732 273.133 445.732 274.5 448.5Z" fill="#596380"/>
<path fill-rule="evenodd" clip-rule="evenodd" d="M506.501 476.5C548.317 475.227 589.983 477.061 631.501 482C648.251 485.093 648.584 488.76 632.501 493C602.986 497.195 573.319 499.029 543.501 498.5C512.278 499.21 481.278 497.043 450.501 492C448.386 491.443 446.386 490.609 444.501 489.5C443.357 486.752 444.357 484.919 447.501 484C451.834 483 456.168 482 460.501 481C475.966 479.367 491.299 477.867 506.501 476.5Z" fill="#45B6A8"/>
</g>
<defs>
<clipPath id="clip0_230_3">
<rect width="800" height="600" fill="white"/>
</clipPath>
</defs>
</svg>
