<svg width="2035" height="1526" viewBox="0 0 2035 1526" fill="none" xmlns="http://www.w3.org/2000/svg">
<g clip-path="url(#clip0_231_131)">
<path fill-rule="evenodd" clip-rule="evenodd" d="M1686.5 741.5C1681.82 641.977 1676.82 542.31 1671.5 442.5C1578.52 451.013 1485.52 459.347 1392.5 467.5C1399.37 573.819 1406.04 680.152 1412.5 786.5C1470.83 781.417 1529.16 776.417 1587.5 771.5C1569.05 780.556 1551.72 791.39 1535.5 804C1505.9 830.041 1506.24 855.708 1536.5 881C1545.32 887.579 1554.32 893.913 1563.5 900C1606.66 923.413 1649.66 947.079 1692.5 971C1713.38 983.535 1732.55 998.369 1750 1015.5C1773.15 1039.64 1781.82 1068.3 1776 1101.5C1770.72 1137.05 1756.06 1168.05 1732 1194.5C1699.66 1227.14 1662.16 1252.31 1619.5 1270C1556.98 1295.21 1492.32 1313.04 1425.5 1323.5C1466.44 1242.46 1507.77 1161.63 1549.5 1081C1451.98 1035.08 1354.32 989.41 1256.5 944C1252.44 942.311 1248.77 940.144 1245.5 937.5C1254.64 928.521 1263.31 919.021 1271.5 909C1271.17 908.833 1270.83 908.667 1270.5 908.5C1258.28 917.776 1245.28 925.776 1231.5 932.5C1229.65 931.039 1227.48 930.039 1225 929.5C1222.39 932.377 1220.56 935.711 1219.5 939.5C1173.3 962.906 1124.3 973.073 1072.5 970C1061.31 969.061 1050.31 967.395 1039.5 965C1095.34 988.281 1151 988.114 1206.5 964.5C1196.85 983.807 1187.18 1003.14 1177.5 1022.5C1166.61 1024.9 1155.44 1025.9 1144 1025.5C1128.92 1025.68 1114.09 1024.18 1099.5 1021C1119.38 1029.14 1140.05 1033.64 1161.5 1034.5C1164.29 1035.48 1167.29 1035.81 1170.5 1035.5C1128.26 1121.82 1085.59 1207.99 1042.5 1294C1044.21 1296.37 1046.54 1298.04 1049.5 1299C1083.5 1314.34 1117.17 1330.17 1150.5 1346.5C1045.98 1348.32 941.649 1344.82 837.501 1336C810.59 1333.66 783.923 1330.49 757.501 1326.5C765.214 1313.58 772.381 1300.24 779.001 1286.5C817.379 1202.57 854.545 1118.07 890.501 1033C892.135 1032.51 893.802 1032.34 895.501 1032.5C901.234 1033.1 906.567 1031.94 911.501 1029C915.274 1025.28 918.441 1021.12 921.001 1016.5C938.061 980.381 952.895 943.381 965.501 905.5C992.925 914.128 1020.92 920.295 1049.5 924C1142.39 932.786 1216.89 900.286 1273 826.5C1301.76 788.629 1321.1 746.295 1331 699.5C1344.35 593.754 1310.52 506.587 1229.5 438C1187.68 405.932 1140.68 384.932 1088.5 375C1040.83 365.665 993.833 367.998 947.501 382C883.204 405.961 837.371 449.461 810.001 512.5C774.38 594.808 772.38 677.808 804.001 761.5C813.485 783.957 825.818 804.624 841.001 823.5C852.416 836.08 864.249 848.08 876.501 859.5C858.343 888.144 842.509 918.144 829.001 949.5C823.792 960.994 821.792 972.994 823.001 985.5C824.246 988.324 825.746 990.991 827.501 993.5C778.491 1076.16 731.991 1160.5 688.001 1246.5C682.382 1257.74 677.882 1269.4 674.501 1281.5C678.795 1290.64 685.129 1298.14 693.501 1304C698.529 1307.18 703.529 1310.34 708.501 1313.5C714.566 1316.53 720.566 1319.53 726.501 1322.5C614.974 1307.29 507.64 1277.45 404.501 1233C345.61 1206.41 291.943 1172.08 243.501 1130C203.951 1094.81 172.451 1053.64 149.001 1006.5C126.847 961.395 116.847 913.729 119.001 863.5C121.23 843.713 128.897 826.38 142.001 811.5C159.609 793.446 179.776 778.946 202.501 768C248.06 747.273 295.393 731.773 344.501 721.5C345.498 714.866 345.831 708.2 345.501 701.5C348.11 771 350.443 840.667 352.501 910.5C447.363 905.155 542.029 899.155 636.501 892.5C659.142 872.195 681.809 851.862 704.501 831.5C702.489 714.665 699.822 597.665 696.501 480.5C661.464 481.877 626.464 483.877 591.501 486.5C593.632 485.686 595.965 485.186 598.501 485C574.634 460.135 551.134 434.968 528.001 409.5C512.406 392.649 500.072 373.649 491.001 352.5C479.806 320.121 486.972 292.621 512.501 270C534.461 252.549 559.128 240.216 586.501 233C622.547 223.279 659.214 217.279 696.501 215C788.648 210.934 880.648 213.267 972.501 222C1026.28 226.642 1079.94 232.308 1133.5 239C1237.41 254.813 1339.41 278.479 1439.5 310C1500.45 329.205 1559.11 353.872 1615.5 384C1660.9 408.299 1701.06 439.465 1736 477.5C1759.62 504.747 1775.29 536.08 1783 571.5C1791.73 616.31 1779.56 654.143 1746.5 685C1728.38 700.235 1708.71 713.235 1687.5 724C1686.53 729.741 1686.19 735.575 1686.5 741.5Z" fill="#EFF2FB"/>
<path fill-rule="evenodd" clip-rule="evenodd" d="M941.5 236.5C975.693 234.88 1008.03 241.713 1038.5 257C999.835 245.213 960.835 244.547 921.5 255C895.058 262.733 870.058 273.4 846.5 287C871.773 258.031 903.44 241.198 941.5 236.5Z" fill="#BCD3F9"/>
<path fill-rule="evenodd" clip-rule="evenodd" d="M974.5 292.5C1017.16 290.331 1057.49 298.831 1095.5 318C1045.39 303.069 995.052 302.736 944.5 317C927.656 321.615 911.322 327.615 895.5 335C883.323 341.088 871.323 347.088 859.5 353C890.346 318.577 928.68 298.41 974.5 292.5Z" fill="#BCD3F9"/>
<path fill-rule="evenodd" clip-rule="evenodd" d="M965.5 905.5C960.142 903.094 954.642 900.761 949 898.5C948.098 898.743 947.265 899.077 946.5 899.5C940.954 895.231 934.621 892.231 927.5 890.5C919.484 885.491 911.151 880.991 902.5 877C893.949 870.899 885.282 865.065 876.5 859.5C864.248 848.08 852.415 836.08 841 823.5C825.817 804.624 813.484 783.957 804 761.5C772.379 677.808 774.379 594.808 810 512.5C837.37 449.461 883.203 405.961 947.5 382C993.832 367.998 1040.83 365.665 1088.5 375C1140.68 384.932 1187.68 405.932 1229.5 438C1310.52 506.587 1344.35 593.754 1331 699.5C1321.1 746.295 1301.76 788.629 1273 826.5C1216.89 900.286 1142.39 932.786 1049.5 924C1020.92 920.295 992.924 914.128 965.5 905.5Z" fill="#A4C6F7"/>
<path fill-rule="evenodd" clip-rule="evenodd" d="M1686.5 741.5C1686.5 748.5 1686.5 755.5 1686.5 762.5C1653.42 765.118 1620.42 768.118 1587.5 771.5C1529.16 776.417 1470.83 781.417 1412.5 786.5C1406.04 680.152 1399.37 573.819 1392.5 467.5C1485.52 459.347 1578.52 451.013 1671.5 442.5C1676.82 542.31 1681.82 641.977 1686.5 741.5Z" fill="#DBE8FB"/>
<path fill-rule="evenodd" clip-rule="evenodd" d="M1045.5 451.5C976.512 531.821 907.179 611.821 837.501 691.5C821.596 623.384 838.93 565.217 889.501 517C927.131 482.854 971.131 461.52 1021.5 453C1029.48 452.066 1037.48 451.566 1045.5 451.5Z" fill="#DAE7FB"/>
<path fill-rule="evenodd" clip-rule="evenodd" d="M1045.5 451.5C1065.92 450.657 1085.92 452.99 1105.5 458.5C1021.47 550.193 937.472 641.859 853.5 733.5C846.415 720.255 841.081 706.255 837.5 691.5C907.178 611.821 976.511 531.821 1045.5 451.5Z" fill="#E4ECF9"/>
<path fill-rule="evenodd" clip-rule="evenodd" d="M1105.5 458.5C1123.64 463.078 1140.64 470.078 1156.5 479.5C1071.24 586.77 985.57 693.77 899.5 800.5C880.269 780.92 864.936 758.586 853.5 733.5C937.472 641.859 1021.47 550.193 1105.5 458.5Z" fill="#DBE8FB"/>
<path fill-rule="evenodd" clip-rule="evenodd" d="M1660.5 607.5C1660.66 609.857 1660.5 612.19 1660 614.5C1654.53 617.548 1648.69 618.715 1642.5 618C1635.89 614.042 1629.05 613.542 1622 616.5C1621.6 616.272 1621.43 615.938 1621.5 615.5C1622.79 612.594 1623.79 609.594 1624.5 606.5C1614.32 606.852 1604.32 606.852 1594.5 606.5C1602.18 603.652 1607.35 598.318 1610 590.5C1611.95 576.24 1609.28 562.907 1602 550.5C1600.47 554.386 1598.31 557.886 1595.5 561C1591.44 563.698 1587.1 565.865 1582.5 567.5C1584.48 569.795 1585.65 572.461 1586 575.5C1586.84 585.922 1586.34 596.256 1584.5 606.5C1580.77 602.722 1577.77 598.389 1575.5 593.5C1558.42 591.211 1544.76 596.878 1534.5 610.5C1532.1 611.908 1529.44 612.908 1526.5 613.5C1528.77 617.034 1530.77 620.7 1532.5 624.5C1522.18 623.566 1511.85 623.399 1501.5 624C1498.7 625.995 1495.54 626.828 1492 626.5C1489.44 626.445 1486.94 626.112 1484.5 625.5C1484.17 624.833 1483.83 624.167 1483.5 623.5C1486.82 601.293 1488.49 578.96 1488.5 556.5C1490 555.506 1491.67 555.506 1493.5 556.5C1494.25 557.573 1495.25 557.74 1496.5 557C1498.49 555.001 1500.83 553.501 1503.5 552.5C1506.08 555.701 1509.08 558.368 1512.5 560.5C1515.41 559.571 1518.08 558.238 1520.5 556.5C1522.57 556.785 1523.9 557.952 1524.5 560C1528.85 560.238 1533.18 559.905 1537.5 559C1539.5 556.159 1540 552.993 1539 549.5C1534.99 541.644 1528.49 537.978 1519.5 538.5C1512.44 539.176 1505.44 540.176 1498.5 541.5C1498.29 539.856 1498.62 538.356 1499.5 537C1507.3 537.692 1510.3 534.192 1508.5 526.5C1511.04 526.896 1513.21 526.229 1515 524.5C1516.79 521.382 1517.46 518.049 1517 514.5C1511.94 512.042 1506.77 511.875 1501.5 514C1494.18 522.104 1489.85 531.604 1488.5 542.5C1488.17 542.5 1487.83 542.5 1487.5 542.5C1485.76 534.444 1482.93 526.778 1479 519.5C1474.8 512.993 1468.96 510.826 1461.5 513C1459.64 514.182 1458.64 515.849 1458.5 518C1459.71 520.319 1460.54 522.819 1461 525.5C1463 526.167 1465 526.833 1467 527.5C1467.5 530.146 1467.66 532.813 1467.5 535.5C1460.65 533.447 1453.65 532.114 1446.5 531.5C1438.31 531.68 1432.15 535.347 1428 542.5C1425.61 546.794 1426.11 550.627 1429.5 554C1433.32 554.235 1436.99 555.068 1440.5 556.5C1443.41 555.571 1446.08 554.238 1448.5 552.5C1451.5 554.5 1454.5 556.5 1457.5 558.5C1458.94 558.281 1460.27 557.781 1461.5 557C1463.35 554.438 1465.51 552.271 1468 550.5C1471.39 551.886 1474.22 554.052 1476.5 557C1477.45 557.483 1478.45 557.649 1479.5 557.5C1480.82 558.942 1482.49 559.608 1484.5 559.5C1480.29 581.352 1475.29 603.019 1469.5 624.5C1458.89 626.486 1448.22 628.152 1437.5 629.5C1432.86 629.517 1428.36 628.85 1424 627.5C1423.72 628.416 1423.22 629.082 1422.5 629.5C1419.24 582.798 1415.57 536.132 1411.5 489.5C1492.47 481.636 1573.47 473.97 1654.5 466.5C1656.25 513.512 1658.25 560.512 1660.5 607.5Z" fill="#FEFEFE"/>
<path fill-rule="evenodd" clip-rule="evenodd" d="M1156.5 479.5C1171.52 486.852 1184.85 496.518 1196.5 508.5C1194.98 512.202 1192.81 515.536 1190 518.5C1102.92 621.012 1016.09 723.679 929.5 826.5C918.589 818.925 908.589 810.258 899.5 800.5C985.57 693.77 1071.24 586.77 1156.5 479.5Z" fill="#E4ECF9"/>
<path fill-rule="evenodd" clip-rule="evenodd" d="M704.5 831.5C704.389 830.883 704.056 830.383 703.5 830C682.169 829.315 660.836 828.815 639.5 828.5C638.601 847.36 637.267 866.193 635.5 885C635.503 887.69 635.836 890.19 636.5 892.5C542.028 899.155 447.362 905.155 352.5 910.5C350.442 840.667 348.109 771 345.5 701.5C343.167 634.834 340.833 568.168 338.5 501.5C422.846 496.722 507.179 491.722 591.5 486.5C626.463 483.877 661.463 481.877 696.5 480.5C699.821 597.665 702.488 714.665 704.5 831.5Z" fill="#DBE8FC"/>
<path fill-rule="evenodd" clip-rule="evenodd" d="M1196.5 508.5C1219.69 530.194 1236.36 556.194 1246.5 586.5C1176.36 678.77 1106.69 771.437 1037.5 864.5C997.406 863.137 961.406 850.47 929.5 826.5C1016.09 723.679 1102.92 621.012 1190 518.5C1192.81 515.536 1194.98 512.202 1196.5 508.5Z" fill="#DAE7FB"/>
<path fill-rule="evenodd" clip-rule="evenodd" d="M676.5 630.5C676.5 632.833 676.5 635.167 676.5 637.5C658.477 643.178 641.81 651.512 626.5 662.5C607.834 647.49 587.501 634.99 565.5 625C557.043 621.421 548.376 620.754 539.5 623C533.363 624.601 527.363 626.601 521.5 629C502.168 637.999 483.168 647.499 464.5 657.5C432.092 647.316 399.759 636.983 367.5 626.5C365.967 594.508 364.634 562.508 363.5 530.5C467.155 523.367 570.822 516.367 674.5 509.5C675.207 549.833 675.873 590.166 676.5 630.5Z" fill="#FEFEFE"/>
<path fill-rule="evenodd" clip-rule="evenodd" d="M1487.5 542.5C1487.5 543.833 1487.5 545.167 1487.5 546.5C1481.21 547.393 1478.54 551.059 1479.5 557.5C1478.45 557.649 1477.45 557.483 1476.5 557C1474.22 554.052 1471.39 551.886 1468 550.5C1465.51 552.271 1463.35 554.438 1461.5 557C1460.27 557.781 1458.94 558.281 1457.5 558.5C1454.5 556.5 1451.5 554.5 1448.5 552.5C1446.08 554.238 1443.41 555.571 1440.5 556.5C1436.99 555.068 1433.32 554.235 1429.5 554C1426.11 550.627 1425.61 546.794 1428 542.5C1432.15 535.347 1438.31 531.68 1446.5 531.5C1453.65 532.114 1460.65 533.447 1467.5 535.5C1467.66 532.813 1467.5 530.146 1467 527.5C1465 526.833 1463 526.167 1461 525.5C1460.54 522.819 1459.71 520.319 1458.5 518C1458.64 515.849 1459.64 514.182 1461.5 513C1468.96 510.826 1474.8 512.993 1479 519.5C1482.93 526.778 1485.76 534.444 1487.5 542.5Z" fill="#BCD3F9"/>
<path fill-rule="evenodd" clip-rule="evenodd" d="M1493.5 556.5C1497.29 550.383 1495.62 546.716 1488.5 545.5C1488.5 544.5 1488.5 543.5 1488.5 542.5C1489.85 531.604 1494.18 522.104 1501.5 514C1506.77 511.875 1511.94 512.042 1517 514.5C1517.46 518.049 1516.79 521.382 1515 524.5C1513.21 526.229 1511.04 526.896 1508.5 526.5C1510.3 534.192 1507.3 537.692 1499.5 537C1498.62 538.356 1498.29 539.856 1498.5 541.5C1505.44 540.176 1512.44 539.176 1519.5 538.5C1528.49 537.978 1534.99 541.644 1539 549.5C1540 552.993 1539.5 556.159 1537.5 559C1533.18 559.905 1528.85 560.238 1524.5 560C1523.9 557.952 1522.57 556.785 1520.5 556.5C1518.08 558.238 1515.41 559.571 1512.5 560.5C1509.08 558.368 1506.08 555.701 1503.5 552.5C1500.83 553.501 1498.49 555.001 1496.5 557C1495.25 557.74 1494.25 557.573 1493.5 556.5Z" fill="#BCD3F9"/>
<path fill-rule="evenodd" clip-rule="evenodd" d="M559.5 536.5C565.005 536.278 569.505 538.278 573 542.5C576.88 548.423 580.38 554.59 583.5 561C584.167 561.667 584.833 561.667 585.5 561C592.64 552.407 600.64 551.407 609.5 558C612.731 560.727 615.397 563.894 617.5 567.5C558.836 568.667 500.17 568.833 441.5 568C445.049 567.226 448.382 565.893 451.5 564C458.167 558 464.833 552 471.5 546C481.835 537.911 493.168 535.911 505.5 540C511.802 545.301 517.802 550.968 523.5 557C526.747 560.399 530.414 561.066 534.5 559C542.133 550.524 550.467 543.024 559.5 536.5Z" fill="#E2E8F7"/>
<path fill-rule="evenodd" clip-rule="evenodd" d="M1472.5 538.5C1473.71 537.218 1475.04 537.218 1476.5 538.5C1475.3 539.292 1473.97 539.292 1472.5 538.5Z" fill="#F3F7FD"/>
<path fill-rule="evenodd" clip-rule="evenodd" d="M1487.5 542.5C1487.83 542.5 1488.17 542.5 1488.5 542.5C1488.5 543.5 1488.5 544.5 1488.5 545.5C1495.62 546.716 1497.29 550.383 1493.5 556.5C1491.67 555.506 1490 555.506 1488.5 556.5C1487.47 557.853 1486.14 558.853 1484.5 559.5C1482.49 559.608 1480.82 558.942 1479.5 557.5C1478.54 551.059 1481.21 547.393 1487.5 546.5C1487.5 545.167 1487.5 543.833 1487.5 542.5Z" fill="#CEE0F9"/>
<path fill-rule="evenodd" clip-rule="evenodd" d="M1594.5 606.5C1591.24 607.482 1587.9 608.149 1584.5 608.5C1584.5 607.833 1584.5 607.167 1584.5 606.5C1586.34 596.256 1586.84 585.922 1586 575.5C1585.65 572.461 1584.48 569.795 1582.5 567.5C1587.1 565.865 1591.44 563.698 1595.5 561C1598.31 557.886 1600.47 554.386 1602 550.5C1609.28 562.907 1611.95 576.24 1610 590.5C1607.35 598.318 1602.18 603.652 1594.5 606.5Z" fill="#BCD3F9"/>
<path fill-rule="evenodd" clip-rule="evenodd" d="M1488.5 556.5C1488.49 578.96 1486.82 601.293 1483.5 623.5C1483.83 624.167 1484.17 624.833 1484.5 625.5C1486.94 626.112 1489.44 626.445 1492 626.5C1495.54 626.828 1498.7 625.995 1501.5 624C1511.85 623.399 1522.18 623.566 1532.5 624.5C1534.93 627.171 1537.27 630.004 1539.5 633C1542.04 634.092 1544.71 634.759 1547.5 635C1563.85 635.54 1580.18 635.207 1596.5 634C1601.23 633.317 1605.9 632.317 1610.5 631C1614.8 626.206 1618.47 621.039 1621.5 615.5C1621.43 615.938 1621.6 616.272 1622 616.5C1629.05 613.542 1635.89 614.042 1642.5 618C1648.69 618.715 1654.53 617.548 1660 614.5C1660.5 612.19 1660.66 609.857 1660.5 607.5C1661.31 609.631 1661.81 611.964 1662 614.5C1663.35 645.184 1664.85 675.851 1666.5 706.5C1653.5 707.767 1640.5 709.1 1627.5 710.5C1625.74 710.408 1624.08 710.075 1622.5 709.5C1621.05 706.215 1618.72 703.715 1615.5 702C1587.56 689.016 1558.22 682.016 1527.5 681C1520.06 678.113 1513.06 674.446 1506.5 670C1497.15 666.048 1487.48 663.214 1477.5 661.5C1476.58 669.252 1475.25 676.919 1473.5 684.5C1467.51 687.62 1462.01 686.953 1457 682.5C1455.45 680.232 1454.61 677.732 1454.5 675C1455.77 669.198 1457.43 663.531 1459.5 658C1448.35 655.308 1437.01 653.808 1425.5 653.5C1425.5 656.167 1425.5 658.833 1425.5 661.5C1424.27 652.209 1423.27 641.543 1422.5 629.5C1423.22 629.082 1423.72 628.416 1424 627.5C1428.36 628.85 1432.86 629.517 1437.5 629.5C1448.22 628.152 1458.89 626.486 1469.5 624.5C1475.29 603.019 1480.29 581.352 1484.5 559.5C1486.14 558.853 1487.47 557.853 1488.5 556.5Z" fill="#EFF2FB"/>
<path fill-rule="evenodd" clip-rule="evenodd" d="M1246.5 586.5C1250.91 598.483 1253.91 610.817 1255.5 623.5C1193.15 703.19 1131.15 783.19 1069.5 863.5C1058.73 865.492 1048.07 865.825 1037.5 864.5C1106.69 771.437 1176.36 678.77 1246.5 586.5Z" fill="#E4ECF9"/>
<path fill-rule="evenodd" clip-rule="evenodd" d="M468.5 604.5C442.5 605.833 416.5 605.833 390.5 604.5C394.959 601.213 399.292 597.713 403.5 594C408.948 590.922 414.281 590.922 419.5 594C422.349 597.016 425.349 599.85 428.5 602.5C432.308 600.526 435.308 597.692 437.5 594C441.551 590.511 445.384 590.677 449 594.5C450.667 597.167 452.333 599.833 454 602.5C459.557 598.049 464.39 598.715 468.5 604.5Z" fill="#E2E8F7"/>
<path fill-rule="evenodd" clip-rule="evenodd" d="M1575.5 593.5C1572.56 599.099 1569.23 604.433 1565.5 609.5C1555.07 611.294 1544.73 611.627 1534.5 610.5C1544.76 596.878 1558.42 591.211 1575.5 593.5Z" fill="#BCD3F9"/>
<path fill-rule="evenodd" clip-rule="evenodd" d="M1575.5 593.5C1577.77 598.389 1580.77 602.722 1584.5 606.5C1584.5 607.167 1584.5 607.833 1584.5 608.5C1578.21 609.372 1571.88 609.705 1565.5 609.5C1569.23 604.433 1572.56 599.099 1575.5 593.5Z" fill="#EEF2FA"/>
<path fill-rule="evenodd" clip-rule="evenodd" d="M634.5 594.5C638.043 594.872 640.21 596.872 641 600.5C643.901 597.682 646.401 598.016 648.5 601.5C635.179 602.666 621.846 602.833 608.5 602C611.635 598.518 615.468 596.351 620 595.5C621.167 595.667 622.333 595.833 623.5 596C625.017 597.685 626.684 599.185 628.5 600.5C630.854 598.812 632.854 596.812 634.5 594.5Z" fill="#E4E9F7"/>
<path fill-rule="evenodd" clip-rule="evenodd" d="M390.5 604.5C416.5 605.833 442.5 605.833 468.5 604.5C469.043 604.56 469.376 604.893 469.5 605.5C442.173 606.667 414.839 606.833 387.5 606C388.527 605.487 389.527 604.987 390.5 604.5Z" fill="#F0F3FB"/>
<path fill-rule="evenodd" clip-rule="evenodd" d="M1594.5 606.5C1604.32 606.852 1614.32 606.852 1624.5 606.5C1623.79 609.594 1622.79 612.594 1621.5 615.5C1618.47 621.039 1614.8 626.206 1610.5 631C1605.9 632.317 1601.23 633.317 1596.5 634C1580.18 635.207 1563.85 635.54 1547.5 635C1544.71 634.759 1542.04 634.092 1539.5 633C1537.27 630.004 1534.93 627.171 1532.5 624.5C1530.77 620.7 1528.77 617.034 1526.5 613.5C1529.44 612.908 1532.1 611.908 1534.5 610.5C1544.73 611.627 1555.07 611.294 1565.5 609.5C1571.88 609.705 1578.21 609.372 1584.5 608.5C1587.9 608.149 1591.24 607.482 1594.5 606.5Z" fill="#CEDFF4"/>
<path fill-rule="evenodd" clip-rule="evenodd" d="M626.5 662.5C644.162 676.346 661.496 690.679 678.5 705.5C678.5 709.167 678.5 712.833 678.5 716.5C677.521 713.375 677.187 710.042 677.5 706.5C628.815 707.853 580.149 709.686 531.5 712C520.465 726.877 519.965 742.043 530 757.5C542.464 769.313 557.298 776.147 574.5 778C592.345 787.524 599.678 802.358 596.5 822.5C551.082 827.328 505.415 830.994 459.5 833.5C478.27 827.536 496.103 819.203 513 808.5C514.967 805.002 514.633 801.668 512 798.5C502.189 789.266 492.189 780.266 482 771.5C475.64 762.69 476.307 754.356 484 746.5C497.359 733.802 511.859 722.635 527.5 713C475.827 714 424.16 715.5 372.5 717.5C372.5 717.167 372.5 716.833 372.5 716.5C402.653 696.011 433.319 676.344 464.5 657.5C483.168 647.499 502.168 637.999 521.5 629C527.363 626.601 533.363 624.601 539.5 623C548.376 620.754 557.043 621.421 565.5 625C587.501 634.99 607.834 647.49 626.5 662.5Z" fill="#F0F3FB"/>
<path fill-rule="evenodd" clip-rule="evenodd" d="M1255.5 623.5C1270.37 693.84 1251.37 753.34 1198.5 802C1160.73 833.215 1117.73 853.715 1069.5 863.5C1131.15 783.19 1193.15 703.19 1255.5 623.5Z" fill="#DAE7FB"/>
<path fill-rule="evenodd" clip-rule="evenodd" d="M367.5 626.5C399.759 636.983 432.092 647.316 464.5 657.5C433.319 676.344 402.653 696.011 372.5 716.5C370.508 686.672 368.841 656.672 367.5 626.5Z" fill="#E2E8F7"/>
<path fill-rule="evenodd" clip-rule="evenodd" d="M676.5 630.5C677.498 655.331 678.164 680.331 678.5 705.5C661.496 690.679 644.162 676.346 626.5 662.5C641.81 651.512 658.477 643.178 676.5 637.5C676.5 635.167 676.5 632.833 676.5 630.5Z" fill="#E2E8F7"/>
<path fill-rule="evenodd" clip-rule="evenodd" d="M1622.5 709.5C1558.99 716.401 1495.49 723.401 1432 730.5C1429.7 707.37 1427.53 684.37 1425.5 661.5C1425.5 658.833 1425.5 656.167 1425.5 653.5C1437.01 653.808 1448.35 655.308 1459.5 658C1457.43 663.531 1455.77 669.198 1454.5 675C1454.61 677.732 1455.45 680.232 1457 682.5C1462.01 686.953 1467.51 687.62 1473.5 684.5C1475.25 676.919 1476.58 669.252 1477.5 661.5C1487.48 663.214 1497.15 666.048 1506.5 670C1513.06 674.446 1520.06 678.113 1527.5 681C1558.22 682.016 1587.56 689.016 1615.5 702C1618.72 703.715 1621.05 706.215 1622.5 709.5Z" fill="#D0E0F7"/>
<path fill-rule="evenodd" clip-rule="evenodd" d="M678.501 716.5C679.181 749.833 679.848 783.166 680.501 816.5C652.501 818.5 624.501 820.5 596.501 822.5C599.679 802.358 592.346 787.524 574.501 778C557.299 776.147 542.465 769.313 530.001 757.5C519.966 742.043 520.466 726.877 531.501 712C580.15 709.686 628.816 707.853 677.501 706.5C677.188 710.042 677.522 713.375 678.501 716.5Z" fill="#FEFEFE"/>
<path fill-rule="evenodd" clip-rule="evenodd" d="M459.5 833.5C432.517 835.704 405.517 837.704 378.5 839.5C376.301 798.845 374.301 758.178 372.5 717.5C424.16 715.5 475.827 714 527.5 713C511.859 722.635 497.359 733.802 484 746.5C476.307 754.356 475.64 762.69 482 771.5C492.189 780.266 502.189 789.266 512 798.5C514.633 801.668 514.967 805.002 513 808.5C496.103 819.203 478.27 827.536 459.5 833.5Z" fill="#FEFEFE"/>
<path fill-rule="evenodd" clip-rule="evenodd" d="M647.5 736.5C632.009 737.496 616.342 737.83 600.5 737.5C608.163 730.577 616.33 724.244 625 718.5C632.604 724.383 640.104 730.383 647.5 736.5Z" fill="#BBD3F9"/>
<path fill-rule="evenodd" clip-rule="evenodd" d="M647.5 736.5C648.043 736.56 648.376 736.893 648.5 737.5C646.604 738.466 644.604 738.799 642.5 738.5C630.167 738.5 617.833 738.5 605.5 738.5C602.959 738.851 601.292 738.518 600.5 737.5C616.342 737.83 632.009 737.496 647.5 736.5Z" fill="#DAE6F9"/>
<path fill-rule="evenodd" clip-rule="evenodd" d="M605.5 738.5C617.833 738.5 630.167 738.5 642.5 738.5C643.864 748.111 644.864 757.777 645.5 767.5C640.833 767.5 636.167 767.5 631.5 767.5C631.81 764.287 631.477 761.287 630.5 758.5C630.5 754.5 630.5 750.5 630.5 746.5C626.5 746.5 622.5 746.5 618.5 746.5C618.5 753.5 618.5 760.5 618.5 767.5C618.5 767.833 618.5 768.167 618.5 768.5C613.595 767.555 608.595 767.221 603.5 767.5C604.111 757.829 604.778 748.162 605.5 738.5Z" fill="#F7F7F8"/>
<path fill-rule="evenodd" clip-rule="evenodd" d="M442.5 759.5C429.92 761.621 417.587 764.288 405.5 767.5C403.801 767.66 402.134 767.494 400.5 767C406.821 758.848 413.488 751.014 420.5 743.5C429.5 748.333 438.5 753.167 447.5 758C445.753 758.352 444.086 758.852 442.5 759.5Z" fill="#BCD4F9"/>
<path fill-rule="evenodd" clip-rule="evenodd" d="M630.5 758.5C630.5 761.5 630.5 764.5 630.5 767.5C626.5 767.5 622.5 767.5 618.5 767.5C618.5 760.5 618.5 753.5 618.5 746.5C622.5 746.5 626.5 746.5 630.5 746.5C630.5 750.5 630.5 754.5 630.5 758.5Z" fill="#BBD3F9"/>
<path fill-rule="evenodd" clip-rule="evenodd" d="M442.5 759.5C445.324 769.129 447.99 778.796 450.5 788.5C445.814 789.037 441.147 789.704 436.5 790.5C434.962 784.149 433.295 777.815 431.5 771.5C427.88 770.707 424.213 770.707 420.5 771.5C421.931 778.758 422.931 786.091 423.5 793.5C419.364 794.561 415.198 795.561 411 796.5C410.5 796.167 410 795.833 409.5 795.5C408.004 786.196 406.67 776.862 405.5 767.5C417.587 764.288 429.92 761.621 442.5 759.5Z" fill="#F7F7F8"/>
<path fill-rule="evenodd" clip-rule="evenodd" d="M630.5 758.5C631.477 761.287 631.81 764.287 631.5 767.5C627.366 768.485 623.032 768.818 618.5 768.5C618.5 768.167 618.5 767.833 618.5 767.5C622.5 767.5 626.5 767.5 630.5 767.5C630.5 764.5 630.5 761.5 630.5 758.5Z" fill="#DFE9F9"/>
<path fill-rule="evenodd" clip-rule="evenodd" d="M436.5 790.5C432.41 792.075 428.077 793.075 423.5 793.5C422.931 786.091 421.931 778.758 420.5 771.5C424.213 770.707 427.88 770.707 431.5 771.5C433.295 777.815 434.962 784.149 436.5 790.5Z" fill="#BCD4F9"/>
<path fill-rule="evenodd" clip-rule="evenodd" d="M704.5 831.5C681.808 851.862 659.141 872.195 636.5 892.5C635.836 890.19 635.503 887.69 635.5 885C637.267 866.193 638.601 847.36 639.5 828.5C660.836 828.815 682.169 829.315 703.5 830C704.056 830.383 704.389 830.883 704.5 831.5Z" fill="#BBD3F9"/>
<path fill-rule="evenodd" clip-rule="evenodd" d="M876.502 859.5C885.284 865.065 893.951 870.899 902.502 877C911.153 880.991 919.486 885.491 927.502 890.5C905.822 933.86 884.155 977.193 862.502 1020.5C856.151 1016.47 849.818 1012.47 843.502 1008.5C838.195 1003.53 832.862 998.528 827.502 993.5C825.747 990.991 824.247 988.324 823.002 985.5C821.793 972.994 823.793 960.994 829.002 949.5C842.51 918.144 858.344 888.144 876.502 859.5Z" fill="#9AC3F4"/>
<path fill-rule="evenodd" clip-rule="evenodd" d="M927.5 890.5C934.621 892.231 940.954 895.231 946.5 899.5C924.768 942.63 902.768 985.63 880.5 1028.5C873.97 1026.9 867.97 1024.23 862.5 1020.5C884.153 977.193 905.82 933.86 927.5 890.5Z" fill="#BAD2F8"/>
<path fill-rule="evenodd" clip-rule="evenodd" d="M965.5 905.5C952.894 943.381 938.06 980.381 921 1016.5C918.44 1021.12 915.273 1025.28 911.5 1029C906.566 1031.94 901.233 1033.1 895.5 1032.5C890.391 1031.64 885.391 1030.31 880.5 1028.5C902.768 985.63 924.768 942.63 946.5 899.5C947.265 899.077 948.098 898.743 949 898.5C954.642 900.761 960.142 903.094 965.5 905.5Z" fill="#9AC3F4"/>
<path fill-rule="evenodd" clip-rule="evenodd" d="M1245.5 937.5C1233.33 947.746 1220.33 956.746 1206.5 964.5C1151 988.114 1095.34 988.281 1039.5 965C1050.31 967.395 1061.31 969.061 1072.5 970C1124.3 973.073 1173.3 962.906 1219.5 939.5C1223.86 937.656 1227.86 935.323 1231.5 932.5C1245.28 925.776 1258.28 917.776 1270.5 908.5C1270.83 908.667 1271.17 908.833 1271.5 909C1263.31 919.021 1254.64 928.521 1245.5 937.5Z" fill="#BCD3F9"/>
<path fill-rule="evenodd" clip-rule="evenodd" d="M1231.5 932.5C1227.86 935.323 1223.86 937.656 1219.5 939.5C1220.56 935.711 1222.39 932.377 1225 929.5C1227.48 930.039 1229.65 931.039 1231.5 932.5Z" fill="#DBE7FB"/>
<path fill-rule="evenodd" clip-rule="evenodd" d="M1245.5 937.5C1248.77 940.144 1252.44 942.311 1256.5 944C1354.32 989.41 1451.98 1035.08 1549.5 1081C1507.77 1161.63 1466.44 1242.46 1425.5 1323.5C1413.63 1347.25 1401.29 1370.59 1388.5 1393.5C1389.6 1392.6 1389.6 1391.77 1388.5 1391C1370.25 1380.63 1352.08 1370.13 1334 1359.5C1321.65 1377.55 1309.81 1395.88 1298.5 1414.5C1249.23 1391.87 1199.89 1369.2 1150.5 1346.5C1117.17 1330.17 1083.5 1314.34 1049.5 1299C1046.54 1298.04 1044.21 1296.37 1042.5 1294C1085.59 1207.99 1128.26 1121.82 1170.5 1035.5C1167.29 1035.81 1164.29 1035.48 1161.5 1034.5C1174.23 1034.78 1186.89 1034.11 1199.5 1032.5C1166.39 1103.39 1132.72 1174.05 1098.5 1244.5C1189.46 1285.43 1280.46 1326.26 1371.5 1367C1372.83 1367.67 1374.17 1367.67 1375.5 1367C1422.04 1276.75 1468.71 1186.59 1515.5 1096.5C1436.77 1059.14 1357.43 1022.81 1277.5 987.5C1281 983.834 1284.33 980.001 1287.5 976C1282.32 978.606 1277.32 981.773 1272.5 985.5C1259.88 978.276 1246.72 971.943 1233 966.5C1224.97 981.221 1217.3 996.221 1210 1011.5C1209.26 1012.75 1209.43 1013.75 1210.5 1014.5C1199.96 1018.55 1188.96 1021.22 1177.5 1022.5C1187.18 1003.14 1196.85 983.807 1206.5 964.5C1220.33 956.746 1233.33 947.746 1245.5 937.5Z" fill="#DBE8FC"/>
<path fill-rule="evenodd" clip-rule="evenodd" d="M1272.5 985.5C1253.12 997.854 1232.46 1007.52 1210.5 1014.5C1209.43 1013.75 1209.26 1012.75 1210 1011.5C1217.3 996.221 1224.97 981.221 1233 966.5C1246.72 971.943 1259.88 978.276 1272.5 985.5Z" fill="#FEFEFE"/>
<path fill-rule="evenodd" clip-rule="evenodd" d="M1277.5 987.5C1256.44 1010.86 1230.44 1025.86 1199.5 1032.5C1186.89 1034.11 1174.23 1034.78 1161.5 1034.5C1140.05 1033.64 1119.38 1029.14 1099.5 1021C1114.09 1024.18 1128.92 1025.68 1144 1025.5C1155.44 1025.9 1166.61 1024.9 1177.5 1022.5C1188.96 1021.22 1199.96 1018.55 1210.5 1014.5C1232.46 1007.52 1253.12 997.854 1272.5 985.5C1277.32 981.773 1282.32 978.606 1287.5 976C1284.33 980.001 1281 983.834 1277.5 987.5Z" fill="#BCD3F9"/>
<path fill-rule="evenodd" clip-rule="evenodd" d="M1277.5 987.5C1357.43 1022.81 1436.77 1059.14 1515.5 1096.5C1468.71 1186.59 1422.04 1276.75 1375.5 1367C1374.17 1367.67 1372.83 1367.67 1371.5 1367C1280.46 1326.26 1189.46 1285.43 1098.5 1244.5C1132.72 1174.05 1166.39 1103.39 1199.5 1032.5C1230.44 1025.86 1256.44 1010.86 1277.5 987.5Z" fill="#FEFEFE"/>
<path fill-rule="evenodd" clip-rule="evenodd" d="M827.5 993.5C832.86 998.528 838.193 1003.53 843.5 1008.5C798.987 1108.83 754.154 1209.16 709 1309.5C708.51 1310.79 708.343 1312.13 708.5 1313.5C703.528 1310.34 698.528 1307.18 693.5 1304C685.128 1298.14 678.794 1290.64 674.5 1281.5C677.881 1269.4 682.381 1257.74 688 1246.5C731.99 1160.5 778.49 1076.16 827.5 993.5Z" fill="#BBD3F8"/>
<path fill-rule="evenodd" clip-rule="evenodd" d="M843.498 1008.5C849.814 1012.47 856.147 1016.47 862.498 1020.5C867.968 1024.23 873.968 1026.9 880.498 1028.5C885.389 1030.31 890.389 1031.64 895.498 1032.5C893.799 1032.34 892.132 1032.51 890.498 1033C854.542 1118.07 817.376 1202.57 778.998 1286.5C772.378 1300.24 765.211 1313.58 757.498 1326.5C753.055 1328.47 748.388 1328.97 743.498 1328C737.725 1326.46 732.059 1324.63 726.498 1322.5C720.563 1319.53 714.563 1316.53 708.498 1313.5C708.341 1312.13 708.508 1310.79 708.998 1309.5C754.152 1209.16 798.985 1108.83 843.498 1008.5Z" fill="#A4C6F7"/>
<path fill-rule="evenodd" clip-rule="evenodd" d="M1340.5 1045.5C1348.18 1044.52 1355.18 1046.19 1361.5 1050.5C1363.19 1052.36 1364.69 1054.36 1366 1056.5C1367.56 1062.79 1370.06 1068.62 1373.5 1074C1379.77 1073.55 1385.77 1071.88 1391.5 1069C1395.5 1068.33 1399.5 1068.33 1403.5 1069C1405.32 1070.8 1406.48 1072.97 1407 1075.5C1407.22 1080.55 1407.72 1085.55 1408.5 1090.5C1413.12 1090.04 1417.78 1090.54 1422.5 1092C1426.11 1096.33 1427.78 1101.16 1427.5 1106.5C1389.62 1088.06 1351.62 1069.89 1313.5 1052C1323.12 1051.95 1332.12 1049.78 1340.5 1045.5Z" fill="#E2E8F7"/>
<path fill-rule="evenodd" clip-rule="evenodd" d="M1241.5 1064.5C1246.12 1063.99 1250.45 1064.83 1254.5 1067C1257.21 1071.15 1259.55 1075.49 1261.5 1080C1267.02 1078.54 1272.68 1077.88 1278.5 1078C1280.31 1081.92 1280.98 1086.09 1280.5 1090.5C1288.22 1088.16 1291.89 1090.83 1291.5 1098.5C1270.89 1089.2 1250.56 1079.36 1230.5 1069C1234.34 1067.64 1238.01 1066.14 1241.5 1064.5Z" fill="#E3E8F7"/>
<path fill-rule="evenodd" clip-rule="evenodd" d="M1271.5 1157.5C1271.06 1157.43 1270.73 1157.6 1270.5 1158C1277.39 1165.72 1284.39 1173.22 1291.5 1180.5C1308.23 1198.56 1324.56 1216.89 1340.5 1235.5C1339.32 1235.28 1338.32 1235.61 1337.5 1236.5C1341.51 1246.19 1348.51 1252.19 1358.5 1254.5C1360.22 1256.77 1361.55 1259.27 1362.5 1262C1360.35 1264.82 1357.68 1265.32 1354.5 1263.5C1354.82 1261.28 1354.16 1259.44 1352.5 1258C1348.37 1255.6 1344.03 1253.76 1339.5 1252.5C1339.5 1253.5 1339.5 1254.5 1339.5 1255.5C1330.86 1251.37 1322.86 1246.2 1315.5 1240C1299 1225.66 1282.66 1211.16 1266.5 1196.5C1266.66 1194.14 1266.5 1191.81 1266 1189.5C1260.17 1182.33 1253.67 1175.83 1246.5 1170C1244.02 1167.43 1241.02 1165.93 1237.5 1165.5C1237.5 1166.83 1237.5 1168.17 1237.5 1169.5C1229.23 1160.73 1220.73 1152.06 1212 1143.5C1205.42 1135.27 1201.25 1125.94 1199.5 1115.5C1200.11 1109.22 1203.44 1106.89 1209.5 1108.5C1216.65 1116.82 1223.98 1124.98 1231.5 1133C1235.13 1134.32 1237.46 1133.15 1238.5 1129.5C1235.69 1125.52 1232.69 1121.69 1229.5 1118C1232.3 1118.73 1234.97 1120.07 1237.5 1122C1248.76 1134.08 1260.09 1145.92 1271.5 1157.5Z" fill="#EFF3FB"/>
<path fill-rule="evenodd" clip-rule="evenodd" d="M1271.5 1157.5C1283.43 1161.64 1295.09 1166.48 1306.5 1172C1308.45 1173.44 1309.78 1175.27 1310.5 1177.5C1310.18 1178.65 1309.52 1179.48 1308.5 1180C1302.84 1180.5 1297.18 1180.67 1291.5 1180.5C1284.39 1173.22 1277.39 1165.72 1270.5 1158C1270.73 1157.6 1271.06 1157.43 1271.5 1157.5Z" fill="#BCD4F9"/>
<path fill-rule="evenodd" clip-rule="evenodd" d="M1266.5 1196.5C1267.12 1209.28 1264.79 1221.45 1259.5 1233C1257.83 1233.67 1256.17 1233.67 1254.5 1233C1249.9 1226.14 1246.74 1218.64 1245 1210.5C1241.7 1196.96 1239.2 1183.3 1237.5 1169.5C1237.5 1168.17 1237.5 1166.83 1237.5 1165.5C1241.02 1165.93 1244.02 1167.43 1246.5 1170C1253.67 1175.83 1260.17 1182.33 1266 1189.5C1266.5 1191.81 1266.66 1194.14 1266.5 1196.5Z" fill="#BCD3F9"/>
<path fill-rule="evenodd" clip-rule="evenodd" d="M1375.5 1188.5C1380.74 1188.02 1385.74 1188.86 1390.5 1191C1392.86 1194.91 1394.52 1199.07 1395.5 1203.5C1399.06 1203.59 1402.39 1202.76 1405.5 1201C1409.78 1199.54 1412.95 1200.71 1415 1204.5C1415.18 1207.55 1415.68 1210.55 1416.5 1213.5C1421.06 1211.45 1424.23 1212.78 1426 1217.5C1426.78 1218.94 1426.61 1220.28 1425.5 1221.5C1405.17 1211.67 1384.83 1201.83 1364.5 1192C1368.61 1191.88 1372.28 1190.72 1375.5 1188.5Z" fill="#E3E8F7"/>
<path fill-rule="evenodd" clip-rule="evenodd" d="M1340.5 1235.5C1349.86 1238.23 1359.19 1241.06 1368.5 1244C1373.64 1246.64 1377.64 1250.47 1380.5 1255.5C1373.16 1256.21 1365.82 1255.87 1358.5 1254.5C1348.51 1252.19 1341.51 1246.19 1337.5 1236.5C1338.32 1235.61 1339.32 1235.28 1340.5 1235.5Z" fill="#BCD4F9"/>
<path fill-rule="evenodd" clip-rule="evenodd" d="M1354.5 1263.5C1354.66 1266.52 1354.5 1269.52 1354 1272.5C1352.49 1273.53 1350.99 1273.37 1349.5 1272C1342.7 1268.56 1339.37 1263.06 1339.5 1255.5C1339.5 1254.5 1339.5 1253.5 1339.5 1252.5C1344.03 1253.76 1348.37 1255.6 1352.5 1258C1354.16 1259.44 1354.82 1261.28 1354.5 1263.5Z" fill="#BDD4F9"/>
<path fill-rule="evenodd" clip-rule="evenodd" d="M1388.5 1393.5C1358.5 1400.5 1328.5 1407.5 1298.5 1414.5C1309.81 1395.88 1321.65 1377.55 1334 1359.5C1352.08 1370.13 1370.25 1380.63 1388.5 1391C1389.6 1391.77 1389.6 1392.6 1388.5 1393.5Z" fill="#BBD3F9"/>
</g>
<defs>
<clipPath id="clip0_231_131">
<rect width="2035" height="1526" fill="white"/>
</clipPath>
</defs>
</svg>
