<svg id="visual" viewBox="0 0 900 600" width="900" height="600" xmlns="http://www.w3.org/2000/svg" xmlns:xlink="http://www.w3.org/1999/xlink" version="1.1"><path d="M863 600L818 600L818 540L872 540L872 480L836 480L836 420L827 420L827 360L818 360L818 300L854 300L854 240L854 240L854 180L836 180L836 120L836 120L836 60L845 60L845 0L900 0L900 60L900 60L900 120L900 120L900 180L900 180L900 240L900 240L900 300L900 300L900 360L900 360L900 420L900 420L900 480L900 480L900 540L900 540L900 600L900 600Z" fill="#8828ff"></path><path d="M701 600L611 600L611 540L719 540L719 480L764 480L764 420L692 420L692 360L737 360L737 300L719 300L719 240L701 240L701 180L719 180L719 120L638 120L638 60L674 60L674 0L846 0L846 60L837 60L837 120L837 120L837 180L855 180L855 240L855 240L855 300L819 300L819 360L828 360L828 420L837 420L837 480L873 480L873 540L819 540L819 600L864 600Z" fill="#913bff"></path><path d="M620 600L539 600L539 540L620 540L620 480L701 480L701 420L647 420L647 360L710 360L710 300L683 300L683 240L665 240L665 180L674 180L674 120L602 120L602 60L584 60L584 0L675 0L675 60L639 60L639 120L720 120L720 180L702 180L702 240L720 240L720 300L738 300L738 360L693 360L693 420L765 420L765 480L720 480L720 540L612 540L612 600L702 600Z" fill="#9a4bff"></path><path d="M530 600L476 600L476 540L566 540L566 480L638 480L638 420L539 420L539 360L584 360L584 300L557 300L557 240L575 240L575 180L539 180L539 120L530 120L530 60L476 60L476 0L585 0L585 60L603 60L603 120L675 120L675 180L666 180L666 240L684 240L684 300L711 300L711 360L648 360L648 420L702 420L702 480L621 480L621 540L540 540L540 600L621 600Z" fill="#a259ff"></path><path d="M287 600L332 600L332 540L332 540L332 480L431 480L431 420L269 420L269 360L377 360L377 300L440 300L440 240L458 240L458 180L233 180L233 120L251 120L251 60L233 60L233 0L477 0L477 60L531 60L531 120L540 120L540 180L576 180L576 240L558 240L558 300L585 300L585 360L540 360L540 420L639 420L639 480L567 480L567 540L477 540L477 600L531 600Z" fill="#aa67ff"></path><path d="M233 600L269 600L269 540L269 540L269 480L341 480L341 420L188 420L188 360L323 360L323 300L368 300L368 240L332 240L332 180L170 180L170 120L134 120L134 60L143 60L143 0L234 0L234 60L252 60L252 120L234 120L234 180L459 180L459 240L441 240L441 300L378 300L378 360L270 360L270 420L432 420L432 480L333 480L333 540L333 540L333 600L288 600Z" fill="#b274ff"></path><path d="M98 600L44 600L44 540L35 540L35 480L80 480L80 420L44 420L44 360L107 360L107 300L62 300L62 240L44 240L44 180L71 180L71 120L35 120L35 60L62 60L62 0L144 0L144 60L135 60L135 120L171 120L171 180L333 180L333 240L369 240L369 300L324 300L324 360L189 360L189 420L342 420L342 480L270 480L270 540L270 540L270 600L234 600Z" fill="#b981ff"></path><path d="M0 600L0 600L0 540L0 540L0 480L0 480L0 420L0 420L0 360L0 360L0 300L0 300L0 240L0 240L0 180L0 180L0 120L0 120L0 60L0 60L0 0L63 0L63 60L36 60L36 120L72 120L72 180L45 180L45 240L63 240L63 300L108 300L108 360L45 360L45 420L81 420L81 480L36 480L36 540L45 540L45 600L99 600Z" fill="#c08dff"></path></svg>