<svg width="693" height="677" viewBox="0 0 693 677" fill="none" xmlns="http://www.w3.org/2000/svg">
<g clip-path="url(#clip0_216_3)">
<path d="M133.321 1.58678C127.637 4.76022 127.366 6.21471 127.23 33.8501V60.4276L130.75 63.9977C134.675 67.7001 141.172 68.6256 144.962 65.7167C149.699 62.1465 150.24 58.5764 150.24 33.0567V7.6692L146.315 3.83463C142.119 -0.132164 137.788 -0.925529 133.321 1.58678Z" fill="#F8F2FF"/>
<path d="M40.8762 40.0651C38.8459 42.0485 37.8984 44.8253 37.8984 48.1309C37.8984 52.7589 39.252 54.4778 54.9527 70.0805C64.292 79.4686 74.0373 88.0634 76.4736 89.1212C82.6998 92.0302 88.926 89.7823 91.4977 83.6999C94.4754 76.9563 91.7684 72.8573 71.7363 53.6845C55.4941 38.0817 54.0053 37.0239 49.1326 37.0239C45.3428 37.0239 42.9064 37.9495 40.8762 40.0651Z" fill="#F8F2FF"/>
<path d="M205.462 53.8165C195.717 63.2046 187.054 72.4604 185.971 74.4438C181.775 82.113 187.325 90.311 196.393 90.311C199.913 90.311 203.567 87.2698 220.08 71.2704C236.864 54.8743 239.571 51.7009 239.571 48.1308C239.571 41.5194 235.104 37.0237 228.472 37.0237C223.193 37.0237 222.11 37.8171 205.462 53.8165Z" fill="#F8F2FF"/>
<path d="M129.261 95.6C121.14 98.2446 116.402 101.021 109.364 106.971C92.3097 121.781 87.9785 146.243 98.6713 168.589C103.815 179.299 260.687 428.414 264.206 431.455C267.184 433.968 273.545 434.364 277.335 432.381C281.125 430.398 283.426 423.919 281.802 419.555C281.125 417.572 245.122 359.656 201.674 291.031C158.361 222.273 121.816 163.961 120.463 161.184C111.394 143.995 116.132 126.541 131.697 119.136C142.661 113.979 152.947 116.624 163.775 127.334C167.159 130.772 198.696 172.953 233.887 221.348C294.525 304.65 298.179 309.41 302.646 310.204C306.301 310.865 308.331 310.468 311.038 308.485C316.858 304.254 317.67 300.155 314.016 292.089C310.361 283.626 309.955 271.329 313.068 264.321C322.543 243.429 349.342 236.95 367.209 251.363C369.916 253.611 374.653 259.693 377.766 264.85C386.564 279.792 388.865 282.833 392.926 284.42C397.257 286.271 404.024 284.023 406.055 280.188C408.085 276.75 407.679 270.139 405.243 265.643C399.964 255.594 402.129 239.198 410.115 229.81C419.59 218.571 437.456 214.868 451.533 221.348C460.06 225.182 463.85 229.678 475.761 249.908C485.641 266.833 489.837 270.668 496.199 269.214C504.455 267.098 507.027 259.164 502.696 249.115C498.77 239.991 503.102 227.694 512.17 222.273C520.427 217.248 535.045 219.629 541.542 226.901C543.707 229.281 608.676 338.897 622.211 362.962C633.31 382.664 641.566 403.159 645.627 421.142C646.439 424.712 649.011 440.182 651.176 455.521C655.372 484.082 659.568 503.783 664.441 517.535C666.065 521.898 667.148 525.469 667.012 525.601C666.742 525.733 487.13 626.886 447.608 649.1L443.953 651.084L433.396 641.167C390.354 600.309 339.191 564.343 264.883 522.824C234.835 506.031 228.609 501.8 221.3 493.205C207.629 477.206 202.486 459.355 207.088 442.959C208.306 438.199 210.878 435.026 218.863 427.356C228.744 418.101 229.015 417.572 228.338 412.812C226.172 399.721 213.314 400.25 198.967 414.134C175.416 437.273 176.904 476.413 202.757 506.825C212.096 517.932 219.811 523.485 244.039 536.972C325.52 582.458 378.172 619.217 419.184 659.414C434.885 674.752 440.028 678.19 444.63 676.471C450.991 674.091 687.451 540.013 690.022 537.237C693.947 533.005 693.812 530.229 688.939 517.403C682.713 500.478 678.517 482.627 674.727 456.182C667.419 405.275 661.057 384.78 641.566 350.401C618.692 310.072 562.656 216.72 558.46 211.959C555.483 208.654 549.933 204.687 544.384 202.042C536.263 198.076 534.233 197.679 523.134 197.679C512.441 197.679 510.005 198.208 503.102 201.381C498.364 203.761 493.086 207.728 489.702 211.695L483.882 218.174L477.791 212.356C464.527 199.795 451.803 195.034 433.26 195.96C423.65 196.357 419.861 197.282 412.416 200.72C401.453 205.613 390.354 216.058 385.752 225.447C383.992 229.017 382.503 232.19 382.233 232.455C382.097 232.719 378.714 231.132 374.788 228.884C350.29 215.397 321.325 219.496 303.187 238.934C299.533 242.768 295.202 248.983 293.307 252.685L290.058 259.429L285.321 252.95C282.749 249.512 259.334 217.381 233.481 181.812C205.87 143.863 183.131 114.112 178.799 109.88C164.723 96.5256 144.555 90.7076 129.261 95.6Z" fill="#F8F2FF"/>
<path d="M5.27778 126.012C-0.948394 130.64 -1.4898 137.648 3.92426 142.937L7.84946 146.771H33.837C59.9598 146.771 63.6143 146.243 67.2688 141.615C70.2465 137.912 69.2991 131.565 65.5092 127.731L61.8547 124.293H34.6491C15.4291 124.425 6.76664 124.822 5.27778 126.012Z" fill="#F8F2FF"/>
<path d="M75.1201 182.34C72.9545 183.663 63.6152 192.257 54.5467 201.249C38.7105 216.984 37.8984 218.042 37.8984 223.198C37.8984 229.678 42.5004 234.041 49.268 234.041C52.9225 234.041 56.1709 231.396 72.5484 215.133C83.1059 204.819 92.0391 195.299 92.4451 194.109C93.7986 190.406 90.6855 183.795 86.4896 181.812C81.617 179.299 79.9928 179.299 75.1201 182.34Z" fill="#F8F2FF"/>
</g>
<defs>
<clipPath id="clip0_216_3">
<rect width="693" height="677" fill="#F8F2FF"/>
</clipPath>
</defs>
</svg>
