<svg width="32768" height="4773" viewBox="0 0 32768 4773" fill="none" xmlns="http://www.w3.org/2000/svg">
<path d="M0 2863.3L1092.27 2545.66C2184.53 2222.04 4369.07 1595.69 6553.6 1431.65C8738.13 1267.61 10922.7 1595.69 13107.2 1908.87C15291.7 2222.04 17476.3 2550.13 19660.8 2942.34C21845.3 3340.52 24029.9 3817.74 26214.4 3579.13C28398.9 3340.52 30583.5 2386.09 31675.7 1908.87L32768 1431.65V0H31675.7C30583.5 0 28398.9 0 26214.4 0C24029.9 0 21845.3 0 19660.8 0C17476.3 0 15291.7 0 13107.2 0C10922.7 0 8738.13 0 6553.6 0C4369.07 0 2184.53 0 1092.27 0H0V2863.3Z" fill="white"/>
</svg>
