<svg width="290" height="287" viewBox="0 0 290 287" fill="none" xmlns="http://www.w3.org/2000/svg">
<path d="M41 82.7692V89.5381H54.8442C62.4221 89.5381 68.8342 89.132 68.8342 88.4551C69.4171 85.206 69.5628 79.114 68.9799 77.6249C68.5427 76.5419 64.3166 76.0003 54.6985 76.0003H41V82.7692Z" fill="white"/>
<path d="M81.608 82.5804V89.3493H89.0402H96.3266L95.8895 96.3889L95.4523 103.564L81.3166 103.97L67.1809 104.376L66.1608 108.979C65.7236 111.416 65.7236 114.123 66.3065 114.936C66.8895 115.883 74.0302 116.425 85.397 116.425H103.467V123.194C103.467 129.556 103.759 129.963 107.111 129.963C110.608 129.963 110.754 130.369 110.754 137.408V144.854H96.1809H81.608V151.623V158.392H96.1809H110.754V165.838V173.283H96.1809H81.608V179.375V185.467H88.8945H96.1809V192.913C96.1809 199.953 96.3266 200.359 99.8241 200.359C103.176 200.359 103.467 200.765 103.467 207.128V213.896H177.06C246.136 213.896 250.653 213.761 250.799 211.46C251.528 204.555 251.673 164.078 251.09 162.047C250.508 160.016 247.884 159.746 222.236 159.746C191.196 159.746 192.362 159.339 192.362 168.68V173.283H177.06H161.759L162.05 145.125L162.487 117.102L177.497 116.696L192.362 116.289V123.194V129.963H221.508H250.653V125.495C250.653 123.194 250.945 114.394 251.236 106.271C251.528 98.0135 251.382 87.8602 250.945 83.5281L250.216 75.8116H165.985H81.608V82.5804Z" fill="white"/>
<path d="M21.8593 110.333V116.425H35.7035H49.5478V110.333V104.241H35.7035H21.8593V110.333Z" fill="white"/>
<path d="M36.4322 138.085V144.854H50.1307H63.8292L64.4121 140.522C65.8694 131.722 65.2865 131.316 50.1307 131.316H36.4322V138.085Z" fill="white"/>
<path d="M22 162.093V168.185H42.9849H63.9699L64.5528 164.394C65.8643 155.865 66.0101 156.001 42.9849 156.001H22V162.093Z" fill="white"/>
<path d="M45.1759 193.59V200.359H55.3769H65.5779V193.59V186.821H55.3769H45.1759V193.59Z" fill="white"/>
<path d="M74.3216 207.128V213.896H80.8794H87.4372V207.128V200.359H80.8794H74.3216V207.128Z" fill="white"/>
</svg>
