<?xml version="1.0" standalone="no"?>
<!DOCTYPE svg PUBLIC "-//W3C//DTD SVG 20010904//EN"
 "http://www.w3.org/TR/2001/REC-SVG-20010904/DTD/svg10.dtd">
<svg version="1.0" xmlns="http://www.w3.org/2000/svg"
 width="558.000000pt" height="348.000000pt" viewBox="0 0 558.000000 348.000000"
 preserveAspectRatio="xMidYMid meet">

<g transform="translate(0.000000,348.000000) scale(0.100000,-0.100000)"
fill="#000000" stroke="none">
<path d="M0 1740 l0 -1740 2790 0 2790 0 0 1740 0 1740 -2790 0 -2790 0 0
-1740z m2772 1262 c9 -7 18 -23 21 -35 2 -12 19 -74 37 -137 30 -110 301
-1179 341 -1345 36 -155 54 -216 64 -216 14 -1 57 147 194 661 45 168 85 319
90 335 5 17 21 75 36 130 l26 101 -25 89 c-13 50 -37 140 -54 200 -42 152 -46
186 -28 210 14 19 26 20 245 20 169 0 233 -3 242 -12 13 -13 40 -91 63 -183 8
-30 26 -100 41 -155 15 -55 100 -392 190 -750 90 -357 167 -659 171 -670 5
-13 39 107 111 395 57 228 110 442 117 475 71 309 224 866 242 885 12 13 57
15 279 15 313 0 306 2 288 -92 -5 -32 -43 -177 -82 -323 -40 -146 -79 -290
-87 -320 -8 -30 -31 -111 -50 -180 -19 -69 -43 -156 -54 -195 -10 -38 -30
-110 -43 -160 -14 -49 -42 -151 -62 -225 -20 -74 -48 -175 -61 -225 -14 -49
-34 -121 -44 -160 -82 -297 -92 -334 -150 -531 -10 -34 -27 -81 -38 -106 -17
-40 -24 -46 -58 -51 -52 -9 -522 -7 -554 2 -35 10 -57 74 -165 466 -15 55 -36
132 -47 170 -36 130 -55 200 -73 265 -36 137 -58 201 -65 193 -5 -4 -18 -42
-29 -83 -143 -537 -269 -965 -292 -993 l-17 -22 -848 -3 c-467 -1 -844 1 -839
6 6 5 41 21 79 37 192 79 389 224 512 377 193 239 290 499 301 803 10 259 -19
413 -116 626 -77 169 -135 254 -261 380 -146 146 -300 249 -475 315 l-50 19
80 6 c44 3 260 6 481 5 310 -1 404 -4 416 -14z m-1214 -531 c244 -64 437 -247
519 -494 26 -76 28 -94 28 -247 0 -187 -15 -257 -82 -380 -94 -173 -234 -290
-423 -352 -89 -29 -105 -31 -240 -32 -132 0 -153 3 -229 28 -100 33 -148 57
-218 108 -127 93 -220 220 -269 369 -25 77 -27 97 -28 249 -1 145 2 175 23
245 81 277 305 470 609 525 73 14 219 4 310 -19z"/>
</g>
</svg>
