<svg width="6150" height="2089" viewBox="0 0 6150 2089" fill="none" xmlns="http://www.w3.org/2000/svg">
<g clip-path="url(#clip0_109_14)">
<path d="M0 1747.8L205 1707.06C410 1666.67 820 1585.2 1230 1557.35C1640 1529.5 2050 1555.26 2460 1585.9C2870 1616.54 3280 1652.75 3690 1675.73C4100 1699.05 4510 1709.5 4920 1682.34C5330 1654.84 5740 1590.08 5945 1557.35L6150 1524.97V2092.48H5945C5740 2092.48 5330 2092.48 4920 2092.48C4510 2092.48 4100 2092.48 3690 2092.48C3280 2092.48 2870 2092.48 2460 2092.48C2050 2092.48 1640 2092.48 1230 2092.48C820 2092.48 410 2092.48 205 2092.48H0V1747.8Z" fill="white"/>
</g>
<defs>
<clipPath id="clip0_109_14">
<rect width="6150" height="2089" fill="white"/>
</clipPath>
</defs>
</svg>
