<svg width="32768" height="3042" viewBox="0 0 32768 3042" fill="none" xmlns="http://www.w3.org/2000/svg">
<path d="M0 2060.23L1092.27 1717.39C2184.53 1368.12 4369.07 692.107 6553.6 857.891C8738.13 1030.11 10922.7 2060.23 13107.2 2060.23C15291.7 2060.23 17476.3 1030.11 19660.8 1115.42C21845.3 1207.16 24029.9 2398.23 26214.4 2832.81C28398.9 3267.39 30583.5 2913.29 31675.7 2747.51L32768 2575.28V0H31675.7C30583.5 0 28398.9 0 26214.4 0C24029.9 0 21845.3 0 19660.8 0C17476.3 0 15291.7 0 13107.2 0C10922.7 0 8738.13 0 6553.6 0C4369.07 0 2184.53 0 1092.27 0H0V2060.23Z" fill="white"/>
</svg>
